<svg xmlns="http://www.w3.org/2000/svg">
  <symbol id="floppy" viewBox="0 0 21 21">
    <path d="M0 0h1.615v1.615H0zM0 1.615h1.615V3.23H0zM0 3.23h1.615v1.615H0zM0 4.846h1.615v1.615H0zM0 6.461h1.615v1.615H0zM0 8.076h1.615v1.615H0zM0 9.691h1.615v1.615H0zM0 11.309h1.615v1.615H0zM0 12.924h1.615v1.615H0zM0 14.539h1.615v1.615H0zM0 16.154h1.615v1.615H0zM0 17.77h1.615v1.615H0zM0 19.385h1.615V21H0zM17.77 0v1.616h-1.616V0zM16.154 0v1.615H14.54V0zM14.54 0v1.615h-1.616V0zM12.924 0v1.615h-1.615V0zM11.309 0v1.615H9.694V0zM9.691 0v1.615H8.076V0zM8.076 0v1.615H6.461V0zM6.46 0v1.615H4.847V0zM4.846 0v1.615H3.23V0zM3.23 0v1.615H1.615V0zM19.385 1.615V3.23H17.77V1.615zM4.846 3.23v1.616H3.231V3.23zM4.846 1.616V3.23H3.23V1.616zM4.845 4.846v1.615H3.23V4.846zM16.155 3.23v1.615H14.54V3.23z"/><path d="M16.155 1.615V3.23H14.54V1.615zM16.154 4.845V6.46h-1.615V4.845zM12.924 3.23v1.616H11.31V3.23zM12.924 1.615V3.23h-1.615V1.615zM12.923 4.846V6.46h-1.615V4.846zM16.154 6.46v1.616H14.54V6.46zM14.539 6.46v1.616h-1.615V6.46zM12.924 6.461v1.615h-1.615V6.461zM11.309 6.461v1.615H9.694V6.461zM9.691 6.46v1.616H8.076V6.46zM8.076 6.46v1.616H6.461V6.46zM6.46 6.461v1.615H4.847V6.461zM4.846 6.461v1.615H3.23V6.461zM17.77 11.31v1.614h-1.616V11.31zM16.154 11.308v1.615h-1.615v-1.615zM14.539 11.308v1.615h-1.615v-1.615zM12.923 11.309v1.615h-1.615v-1.615zM11.308 11.309v1.615H9.693v-1.615zM9.691 11.308v1.615H8.076v-1.615zM8.076 11.308v1.615H6.46v-1.615zM6.46 11.309v1.615H4.847v-1.615zM4.845 11.309v1.615H3.23v-1.615z"/><path d="M17.77 12.924v1.615h-1.616v-1.615zM4.846 12.924v1.615H3.23v-1.615zM17.77 14.54v1.615h-1.615V14.54zM4.846 14.54v1.614H3.23V14.54zM17.77 16.155v1.615h-1.615v-1.615zM4.846 16.155v1.615H3.231v-1.615zM4.845 17.77v1.615H3.23V17.77zM17.769 17.77v1.615h-1.615V17.77zM19.385 19.385V21H17.77v-1.615zM17.77 19.385V21h-1.616v-1.615zM16.154 19.384V21H14.54v-1.615zM14.539 19.385V21h-1.615v-1.615zM12.924 19.385V21h-1.615v-1.615zM11.308 19.385V21H9.693v-1.615zM9.691 19.384V21H8.076v-1.615zM8.076 19.385V21H6.461v-1.615zM6.46 19.385V21H4.847v-1.615zM4.845 19.385V21H3.23v-1.615zM3.23 19.384V21H1.615v-1.615zM21 21h-1.615v-1.615H21zM21 19.385h-1.615V17.77H21zM21 17.769h-1.615v-1.615H21z"/><path d="M21 16.155h-1.615V14.54H21zM21 14.54h-1.615v-1.616H21zM21 12.924h-1.615v-1.615H21zM21 11.308h-1.615V9.693H21zM21 9.692h-1.615V8.077H21zM21 8.076h-1.615V6.461H21zM21 6.46h-1.615V4.847H21zM21 4.845h-1.615V3.23H21z"/>
  </symbol>
</svg>